# xmcd
#
# Track frame offsets:
#	183
#	15863
#	31000
#	47795
#	63695
#	85015
#	109905
#	125683
#	140595
#	162035
#	177528
#	195558
#	209818
#	230000
#	245933
#	264523
#	284125
#	299488
#
# Disc length: 4258 seconds
#
# Revision: 4
# Processed by: cddbd v1.5.1PL0 Copyright (c) Steve Scherf et al.
# Submitted via: audiograbber 1.83.01
#
DISCID=1c10a012
DTITLE=Various Artist - Soul Dreaming
DYEAR=1991
DGENRE=Soul
TTITLE0=The Drifters - Like Sister And Brothers
TTITLE1=Delfonics - Didn't I Blow Your Mind This Time
TTITLE2=Evelyn 'Champaign' King - Love Come Down
TTITLE3=Odyssey - Native New Yorker
TTITLE4=Three Degrees - A Woman In Love
TTITLE5=The Stylistics - You Make Me Feel Brand New
TTITLE6=Jimmy Ruffin' - Hold On To My Love
TTITLE7=Four Tops - When She Was My Girl
TTITLE8=James Brown - Living In America
TTITLE9=Barry White - You're The First, My Last, My Everything
TTITLE10=Kool and The Gang - Joanna
TTITLE11=Isley Bros - Summer Breeze
TTITLE12=Luther Vandross - I Really Didn't Mean It
TTITLE13=Alexander O' Neal - Never Knew Love Like This
TTITLE14=Marvin Gaye - Sexual Healing
TTITLE15=Deniece Williams - Let's Hear It For The Boy
TTITLE16=Gladys Knight - Come Back And Finish What You Started
TTITLE17=Manhattans - Kiss And Say Goodbye
EXTD=(c) 1991 Wisepack Ltd.
EXTT0=
EXTT1=
EXTT2=
EXTT3=
EXTT4=
EXTT5=
EXTT6=
EXTT7=
EXTT8=
EXTT9=
EXTT10=
EXTT11=
EXTT12=
EXTT13=
EXTT14=
EXTT15=
EXTT16=
EXTT17=
PLAYORDER=
